inDegrees=yes
name=ik_lifting_orientations
DataType=double
version=3
OpenSimVersion=4.5-2024-01-10-34fd6af
endheader
time	pelvis_tilt	pelvis_list	pelvis_rotation	pelvis_tx	pelvis_ty	pelvis_tz	hip_flexion_r	hip_adduction_r	hip_rotation_r	knee_angle_r	knee_angle_r_beta	ankle_angle_r	subtalar_angle_r	mtp_angle_r	hip_flexion_l	hip_adduction_l	hip_rotation_l	knee_angle_l	knee_angle_l_beta	ankle_angle_l	subtalar_angle_l	mtp_angle_l	lumbar_extension	lumbar_bending	lumbar_rotation	arm_flex_r	arm_add_r	arm_rot_r	elbow_flex_r	pro_sup_r	wrist_flex_r	wrist_dev_r	arm_flex_l	arm_add_l	arm_rot_l	elbow_flex_l	pro_sup_l	wrist_flex_l	wrist_dev_l
0.02	-0.007790526115150814	0.0049690733652948	-89.92864163029749	0	0.9399999998679526	0	41.74019380728627	-12.42653801888961	0	55.93230159995782	0.9762028211377561	-6.288509102207866	0	0	41.74019380728627	-12.42653801888961	0	55.93230159995782	0.9762028211377561	-6.288509102207866	0	0	0.01145866768912245	-0.006999250510220018	-0.01489323401001423	-0.1994376356803016	-0.028614881548743	0.006235473476757412	0.4005322477578662	9.406379867615744	0	0	0	-7.969575896011637	0	80.68547540391445	9.406379867615744	0	0
0.03	-0.00840803359624661	0.01674124774891344	-89.93399487046653	0	0.9399999998679526	0	41.79722319183924	-12.29811829127146	0	55.98884637613818	0.9771897136569069	-6.204439454522024	0	0	41.79722319183924	-12.29811829127146	0	55.98884637613818	0.9771897136569069	-6.204439454522024	0	0	0.05107589098318945	0.0168105659993647	-0.00228304939740252	-0.3441694484271682	-0.05444922346118699	-0.01970009126726189	0.6316866646400288	9.2888286583966	0	0	0	-8.034583277615791	0	80.8018554419241	9.2888286583966	0	0
0.04	0.007017022240878513	-0.005408651016211325	-89.933315885773	0	0.9399999998679526	0	41.8771157696729	-12.13056675144131	0	56.06863584185964	0.9785823025421534	-6.097449495188551	0	0	41.8771157696729	-12.13056675144131	0	56.06863584185964	0.9785823025421534	-6.097449495188551	0	0	-0.0237064989636519	-0.009681482233453177	-0.0009058502421240643	-0.2699331470309198	-0.04354883263587307	-0.01667811223700768	0.6433228828515438	9.122594579508775	0	0	0	-8.127126268549414	0	80.96643557805814	9.122594579508775	0	0
0.05	0.00458943962557982	-0.01029753004588341	-89.94480913579865	0	0.9399999998679526	0	41.93466449156077	-12.01224717529195	0	56.12621922694986	0.9795873222064216	-6.022383678383455	0	0	41.93466449156077	-12.01224717529195	0	56.12621922694986	0.9795873222064216	-6.022383678383455	0	0	-0.01778119444796615	-0.003414522318249214	0.001824836242124057	-0.2204029153136029	-0.03664675238749594	-0.00554065665337232	0.5478133703266063	9.002502159242077	0	0	0	-8.194118940988673	0	81.08533355188953	9.002502159242077	0	0
0.06	0.01961004072053037	0.0002073973883325834	-89.93366098716798	0	0.9399999998679526	0	42.00719846330524	-11.86517987143901	0	56.19887172220882	0.98085534745848	-5.929638542113302	0	0	42.00719846330524	-11.86517987143901	0	56.19887172220882	0.98085534745848	-5.929638542113302	0	0	-0.001704169366522861	-0.00573786032075458	-0.001203023426062702	-0.2233979311527194	-0.06457464658217793	-0.04750731258665099	0.5315757143727539	8.850892256600268	0	0	0	-8.278785398927763	0	81.23543580110862	8.850892256600268	0	0
0.07000000000000001	-0.0002364827529400086	-0.001081265482841133	-89.93540695146872	0	0.9399999998679526	0	42.14824568721639	-11.61520108148007	0	56.34197107139929	0.9833529022593147	-5.779528057841318	0	0	42.14824568721639	-11.61520108148007	0	56.34197107139929	0.9833529022593147	-5.779528057841318	0	0	-0.00388775558546197	0.001263367966310444	-0.0002536293172751791	-0.2202981510525364	-0.0418940158770103	-0.04286150613860761	0.522779410413466	8.550894111036932	0	0	0	-8.448359145782403	0	81.53245749789623	8.550894111036932	0	0
0.08	-0.003568452332516288	0.007401129749770862	-89.93465376546506	0	0.9399999998679526	0	42.21918827037341	-11.49320783205448	0	56.41420586819788	0.9846136372979591	-5.706848337934762	0	0	42.21918827037341	-11.49320783205448	0	56.41420586819788	0.9846136372979591	-5.706848337934762	0	0	-0.04268343596349652	0.001232460400996282	0.0609708715553322	-0.1800202701376087	-0.04154520104086325	-0.1036267320587766	0.5357606797253934	8.399255486628341	0	0	0	-8.534372717502588	0	81.68259244279963	8.399255486628341	0	0
0.09	-0.002194889582636701	-0.005575545534112762	-89.93878029985234	0	0.9399999998679526	0	42.30884832913998	-11.34252418525483	0	56.50568851679927	0.9862103107244984	-5.617896780163728	0	0	42.30884832913998	-11.34252418525483	0	56.50568851679927	0.9862103107244984	-5.617896780163728	0	0	-0.004747831377954243	-0.004672229267369574	0.06480273279229656	-0.2264607630449183	-0.0325667606402496	-0.09472282949915478	0.5335861052959571	8.207046780935123	0	0	0	-8.643615266520953	0	81.87289569369869	8.207046780935123	0	0
0.1	-0.0007067388141826171	-0.001452161613843442	-89.92645887867546	0	0.9399999998679526	0	42.36921873538418	-11.24913318192065	0	56.56777038699141	0.987293843765147	-5.564437752013506	0	0	42.36921873538418	-11.24913318192065	0	56.56777038699141	0.987293843765147	-5.564437752013506	0	0	-0.00317447213931377	3.09590024467193e-05	-0.004254665431608704	-0.2273732999894829	-0.0399873753294979	-0.05371806333030402	0.5342258148654572	8.076247226128528	0	0	0	-8.718493115046043	0	82.00240013261535	8.076247226128528	0	0
0.11	-0.00512616329071241	0.02392273698815566	-89.94475518483621	0	0.9399999998679526	0	42.4345783008671	-11.15464811105755	0	56.63542725561035	0.9884746788841366	-5.511673989801142	0	0	42.4345783008671	-11.15464811105755	0	56.63542725561035	0.9884746788841366	-5.511673989801142	0	0	-0.005912792784677586	0.01024756308623864	0.06317746235766129	-0.4436129457657542	-0.1109117081000061	-0.09936293110912404	1.024988521358649	7.933368411706166	0	0	0	-8.800786194369513	0	82.14386561696034	7.933368411706166	0	0
0.12	-0.000873864271906668	-0.0001907574825550754	-89.93649271134556	0	0.9399999998679526	0	42.57393972801621	-10.98034163639257	0	56.78167253746456	0.9910271405679998	-5.419465402855502	0	0	42.57393972801621	-10.98034163639257	0	56.78167253746456	0.9910271405679998	-5.419465402855502	0	0	-0.001016736836512886	-0.0006849848577836541	0.06055600532959442	-0.2222908066554682	-0.03951794698499256	-0.1032559421794521	0.5219016408144524	7.622960749514255	0	0	0	-8.981844624879079	0	82.45120868297279	7.622960749514255	0	0
0.13	0.008897492507034543	0.004732814152350735	-89.93799946758789	0	0.9399999998679526	0	42.64403366972608	-10.89150663610552	0	56.85521888762749	0.9923107665311676	-5.372013603925692	0	0	42.64403366972608	-10.89150663610552	0	56.85521888762749	0.9923107665311676	-5.372013603925692	0	0	0.0748497365190702	-0.005875507529727844	0.06167048784354761	-0.30873352003577	-0.05209725062432373	-0.1016097208111801	0.5347584798836118	7.466864184651246	0	0	0	-9.072896250464453	0	82.60576393471094	7.466864184651246	0	0
0.14	0.0008353403580783567	-0.0003147476428207034	-89.93396730608532	0	0.9399999998679526	0	42.68721207008105	-10.84177964093466	0	56.90094513674936	0.9931088401329315	-5.34634414913516	0	0	42.68721207008105	-10.84177964093466	0	56.90094513674936	0.9931088401329315	-5.34634414913516	0	0	-0.002413252602605913	-0.003282026820841817	0.05926759083745249	-0.2277217403299207	-0.03258609765875858	-0.09017216652955796	0.509131449756374	7.369469886302716	0	0	0	-9.130196228175326	0	82.70219770765524	7.369469886302716	0	0
0.15	-0.007748191227159737	0.01707889907375202	-89.94045226140598	0	0.9399999998679526	0	42.726574156045	-10.79855117398844	0	56.94283143700579	0.9938398939838851	-5.324404875314563	0	0	42.726574156045	-10.79855117398844	0	56.94283143700579	0.9938398939838851	-5.324404875314563	0	0	0.0789129858317584	0.01146975459681696	0.06953157954807784	-0.3648441984477495	-0.04737231354955963	-0.08323407522177186	0.6252891234959571	7.280104222772085	0	0	0	-9.183004602598626	0	82.79068253567033	7.280104222772085	0	0
0.16	0.003954790533252161	-0.0008869655155547997	-89.93683606679102	0	0.9399999998679526	0	42.775456161218	-10.7449648300043	0	56.99484468258044	0.9947476963738111	-5.297259726692069	0	0	42.775456161218	-10.7449648300043	0	56.99484468258044	0.9947476963738111	-5.297259726692069	0	0	0.06742846787770768	-0.007023162045361808	0.06013523981338056	-0.3085739651183682	0.002622948038376095	-0.08236070697110472	0.5037967413113882	7.169134120427975	0	0	0	-9.248570961473767	0	82.90055880600397	7.169134120427975	0	0
0.17	0.003359819998181634	0.003861233249629723	-89.93727804188292	0	0.9399999998679526	0	42.82515197416758	-10.6933686548363	0	57.04799319467783	0.9956753129024466	-5.27164593284818	0	0	42.82515197416758	-10.6933686548363	0	57.04799319467783	0.9956753129024466	-5.27164593284818	0	0	0.07478307043860112	-0.006038615843973404	0.06100682513032805	-0.3123298948066665	-0.02080777002389391	-0.05067816829409051	0.5210760982135488	7.055507183659442	0	0	0	-9.316027381948073	0	83.01306640058631	7.055507183659442	0	0
0.18	0.00035892159014691	-9.028969405021808e-05	-89.93463889558056	0	0.9399999998679526	0	42.88947740927799	-10.63170722755947	0	57.11733135420832	0.9968854920835267	-5.241896426597982	0	0	42.88947740927799	-10.63170722755947	0	57.11733135420832	0.9968854920835267	-5.241896426597982	0	0	0.0352605096716911	-0.003841449733480318	0.05954803127310278	-0.2774003995809451	-0.01707595692022515	-0.05037969490903393	0.5216851516044985	6.906827756179185	0	0	0	-9.404934578315716	0	83.16028249220959	6.906827756179185	0	0
0.19	0.000572945853280733	-0.001230152956726656	-89.93454517929285	0	0.9399999998679526	0	42.98213710132503	-10.5509919662582	0	57.21813923178541	0.9986449214591943	-5.204306490347542	0	0	42.98213710132503	-10.5509919662582	0	57.21813923178541	0.9986449214591943	-5.204306490347542	0	0	-0.003554350083699408	-0.001738322747036997	0.05948368934343762	-0.2328669141272006	-0.01659586908625497	-0.05008814968403758	0.5087313937208908	6.68991746303493	0	0	0	-9.535737059320139	0	83.37505995842443	6.68991746303493	0	0
0.2	0.0109233614750039	-0.007521232937841837	-89.94336542121899	0	0.9399999998679526	0	43.08586851842912	-10.47555187471979	0	57.33300500191719	1.000649707345833	-5.171400628526188	0	0	43.08586851842912	-10.47555187471979	0	57.33300500191719	1.000649707345833	-5.171400628526188	0	0	-0.02184665702499076	-0.008341944365951049	0.05813613376004222	-0.4548836169005129	-0.08567514252904238	-0.04430582776002712	0.9975493752247712	6.441106746020915	0	0	0	-9.688204806319748	0	83.62142837346822	6.441106746020915	0	0
0.21	0.002091850621549484	0.001095524937448859	-89.93526154362712	0	0.9399999998679526	0	43.1304280993165	-10.44074446873559	0	57.38216225265243	1.001507663222391	-5.155719775989565	0	0	43.1304280993165	-10.44074446873559	0	57.38216225265243	1.001507663222391	-5.155719775989565	0	0	0.001617500181214913	-0.004806714008339258	0.06050091436260187	-0.2350495975359049	-0.01499554598652023	-0.04993532617322988	0.5081582128974792	6.335028985414901	0	0	0	-9.752901299080857	0	83.72646425427789	6.335028985414901	0	0
0.22	-0.0002183873046625662	0.0006739722978190146	-89.93405846754239	0	0.9399999998679526	0	43.22305941307447	-10.38290272379161	0	57.48637436557919	1.003326507713423	-5.131735704041415	0	0	43.22305941307447	-10.38290272379161	0	57.48637436557919	1.003326507713423	-5.131735704041415	0	0	-0.0005458698718461488	-0.001254393896013063	0.05952884121350924	-0.23385018360152	-0.01639808666091214	-0.05022756822632311	0.5090527318399328	6.107874827183494	0	0	0	-9.894148241063645	0	83.9513916605905	6.107874827183494	0	0
